<svg width="437" height="45" viewBox="0 0 437 45" fill="none" xmlns="http://www.w3.org/2000/svg">
<path d="M0.8125 0.5H30.4062V5.9375H7.0625V18.75H25.0938V24H7.0625V44H0.8125V0.5ZM54.7188 39.125C61.5521 39.125 64.9688 34.9271 64.9688 26.5312V0.5H71.2188V26.5312C71.2188 32.6771 69.6667 37.2812 66.5625 40.3438C63.75 43.1146 59.8021 44.5 54.7188 44.5C46.8646 44.5 41.7708 41.2604 39.4375 34.7812C38.6042 32.5104 38.1875 29.7604 38.1875 26.5312V0.5H44.4375V26.5312C44.4375 34.9271 47.8646 39.125 54.7188 39.125ZM81.375 0.5H93.7188C101.948 0.5 107.25 2.9375 109.625 7.8125C110.479 9.60417 110.906 11.625 110.906 13.875C110.906 16.1042 110.604 17.9896 110 19.5312C109.417 21.0729 108.594 22.3958 107.531 23.5C105.49 25.625 102.677 27.0208 99.0938 27.6875C100.573 32.25 103.083 35.3958 106.625 37.125C107.792 37.7083 108.771 38.0208 109.562 38.0625C110.896 38.1042 111.833 38.0625 112.375 37.9375V44H110.969C106.281 44 102.292 42.3333 99 39C96.1042 36.1042 94.1562 32.4583 93.1562 28.0625H87.625V44H81.375V0.5ZM93.3125 23.0625C97.0833 23.0625 99.875 22.3333 101.688 20.875C103.5 19.4167 104.406 17.1458 104.406 14.0625C104.406 9.95833 102.5 7.3125 98.6875 6.125C97.3542 5.70833 95.7396 5.5 93.8438 5.5H87.625V23.0625H93.3125ZM118.75 0.5H131.094C139.323 0.5 144.625 2.9375 147 7.8125C147.854 9.60417 148.281 11.625 148.281 13.875C148.281 16.1042 147.979 17.9896 147.375 19.5312C146.792 21.0729 145.969 22.3958 144.906 23.5C142.865 25.625 140.052 27.0208 136.469 27.6875C137.948 32.25 140.458 35.3958 144 37.125C145.167 37.7083 146.146 38.0208 146.938 38.0625C148.271 38.1042 149.208 38.0625 149.75 37.9375V44H148.344C143.656 44 139.667 42.3333 136.375 39C133.479 36.1042 131.531 32.4583 130.531 28.0625H125V44H118.75V0.5ZM130.688 23.0625C134.458 23.0625 137.25 22.3333 139.062 20.875C140.875 19.4167 141.781 17.1458 141.781 14.0625C141.781 9.95833 139.875 7.3125 136.062 6.125C134.729 5.70833 133.115 5.5 131.219 5.5H125V23.0625H130.688ZM166.344 25.0625L150.812 0.5H157.562L169.688 19.9375L181.562 0.5H188.312L172.844 25V44H166.344V25.0625ZM214.938 0.5H227.281C235.51 0.5 240.812 2.9375 243.188 7.8125C244.042 9.60417 244.469 11.7292 244.469 14.1875C244.469 16.6458 244.031 18.75 243.156 20.5C242.281 22.25 241.104 23.6875 239.625 24.8125C236.75 26.9792 232.906 28.0625 228.094 28.0625H221.188V44H214.938V0.5ZM226.875 23.0625C230.646 23.0625 233.438 22.3333 235.25 20.875C237.062 19.4167 237.969 17.1458 237.969 14.0625C237.969 9.95833 236.062 7.3125 232.25 6.125C230.917 5.70833 229.302 5.5 227.406 5.5H221.188V23.0625H226.875ZM251.812 0.5H258.062V38.5H276.688V44H251.812V0.5ZM298.25 0.5H302.531L320.875 44H314.375L309.969 33.0625H290.656L286.281 44H279.906L298.25 0.5ZM307.969 28.0625L300.344 9L292.688 28.0625H307.969ZM326.531 0.5H331.031L353.75 32.5938L353.406 28.0938V0.5H359.594V44H355.125L336.156 17.3438L332.375 11.9062L332.719 17.3438V44H326.531V0.5ZM369.25 0.5H397.344V5.9375H375.5V18.75H392.031V24H375.5V38.5H397.344V44H369.25V0.5ZM417.281 6H404.188V0.5H436.625V6H423.531V44H417.281V6Z" fill="#F2F2F2"/>
</svg>
