<svg width="166" height="178" viewBox="0 0 166 178" fill="none" xmlns="http://www.w3.org/2000/svg">
<path d="M155.597 59.0555C79.291 76.9759 78.0385 28.9472 86.9505 2.69285C82.8558 1.24766 69.0301 1.10314 46.485 12.0866C34.1102 11.6049 9.1259 16.7113 8.18735 40.9906C8.18735 45.3262 11.8004 52.5521 18.3037 52.5521C3.27369 65.8479 1.44311 97.1123 2.40658 111.083C86.806 122.644 144.999 115.9 163.546 111.083C167.014 86.2252 159.692 66.0406 155.597 59.0555Z" fill="white"/>
<path d="M18.3037 52.5521C3.27369 65.8479 1.44311 97.1123 2.40658 111.083C86.806 122.644 144.999 115.9 163.546 111.083C167.014 86.2252 159.692 66.0406 155.597 59.0555C79.291 76.9759 78.0385 28.9472 86.9505 2.69285C82.8558 1.24766 69.0301 1.10314 46.485 12.0866C34.1102 11.6049 9.1259 16.7113 8.18735 40.9906C8.18735 45.3262 11.8004 52.5521 18.3037 52.5521ZM18.3037 52.5521C18.3037 52.5521 30.1543 48.6501 34.2009 33.042" stroke="#F5F5F5" stroke-width="3"/>
<path d="M17.0837 51.8483C10.8212 61.0012 -0.836758 85.8104 2.63171 111.824C5.76297 127.48 20.5521 161.25 54.6587 171.077C73.6872 176.858 118.536 180.76 145.706 150.122C158.231 135.67 176.922 95.7822 151.487 51.8483C145.224 51.6074 132.699 47.0791 132.699 30.8929" stroke="#F5F5F5"/>
<path d="M87.252 42.4359C81.4712 27.9839 84.8433 10.8824 87.252 4.13818C99.3916 4.13818 113.506 9.91897 119.046 12.8094C141.013 12.2313 152.768 23.6483 155.899 29.4291C166.304 42.1468 157.826 49.6618 152.286 51.8296L155.899 59.0556L145.06 61.2234C108.063 70.4727 91.1058 52.5522 87.252 42.4359Z" fill="#F6B756"/>
<path d="M152.286 51.8296L155.899 59.0556L145.06 61.2234C108.063 70.4727 91.1058 52.5522 87.252 42.4359C81.4712 27.9839 84.8433 10.8824 87.252 4.13818C99.3916 4.13818 113.506 9.91897 119.046 12.8094C141.013 12.2313 152.768 23.6483 155.899 29.4291C166.304 42.1468 157.826 49.6618 152.286 51.8296ZM152.286 51.8296C134.943 48.9392 132.535 37.1368 133.498 31.5969" stroke="#F5F5F5" stroke-width="3"/>
<rect x="17.0836" y="70.6359" width="26.0135" height="26.0135" rx="13.0068" fill="#F6B756"/>
<circle cx="45.265" cy="62.6873" r="7.94858" fill="black"/>
<path d="M74.9427 69.9054C74.5392 69.5283 73.9064 69.5497 73.5293 69.9531C73.1521 70.3566 73.1735 70.9894 73.5769 71.3665L74.9427 69.9054ZM84.1884 78.5478L74.9427 69.9054L73.5769 71.3665L82.8226 80.0089L84.1884 78.5478Z" fill="black"/>
<path d="M91.0401 70.095L83.1236 78.854" stroke="black" stroke-width="2" stroke-linecap="round"/>
<path d="M82.4288 87.9284C82.4454 88.4805 82.9064 88.9145 83.4584 88.8979C84.0105 88.8812 84.4445 88.4202 84.4278 87.8682L82.4288 87.9284ZM84.4278 87.8682L84.1232 77.7564L82.1241 77.8167L82.4288 87.9284L84.4278 87.8682Z" fill="black"/>
<circle cx="114.003" cy="61.2421" r="7.94858" fill="black"/>
<path d="M163.862 111.101C145.941 121.507 49.4506 115.437 3.44516 111.101C16.1629 167.175 64.6251 177.34 87.2665 175.413C137.559 178.303 159.285 133.743 163.862 111.101Z" fill="#FF881A" stroke="#F5F5F5" stroke-width="3"/>
<rect x="118.348" y="69.2472" width="26.0135" height="26.0135" rx="13.0068" fill="#FF881A"/>
</svg>
