<svg width="675" height="178" viewBox="0 0 675 178" fill="none" xmlns="http://www.w3.org/2000/svg">
<path d="M155.597 59.0555C79.291 76.9759 78.0385 28.9472 86.9505 2.69285C82.8558 1.24766 69.0301 1.10314 46.485 12.0866C34.1102 11.6049 9.1259 16.7113 8.18735 40.9906C8.18735 45.3262 11.8004 52.5521 18.3037 52.5521C3.27369 65.8479 1.44311 97.1123 2.40658 111.083C86.806 122.644 144.999 115.9 163.546 111.083C167.014 86.2252 159.692 66.0406 155.597 59.0555Z" fill="white"/>
<path d="M18.3037 52.5521C3.27369 65.8479 1.44311 97.1123 2.40658 111.083C86.806 122.644 144.999 115.9 163.546 111.083C167.014 86.2252 159.692 66.0406 155.597 59.0555C79.291 76.9759 78.0385 28.9472 86.9505 2.69285C82.8558 1.24766 69.0301 1.10314 46.485 12.0866C34.1102 11.6049 9.1259 16.7113 8.18735 40.9906C8.18735 45.3262 11.8004 52.5521 18.3037 52.5521ZM18.3037 52.5521C18.3037 52.5521 30.1543 48.6501 34.2009 33.042" stroke="#F5F5F5" stroke-width="3"/>
<path d="M17.0837 51.8483C10.8212 61.0012 -0.836758 85.8104 2.63171 111.824C5.76297 127.48 20.5521 161.25 54.6587 171.077C73.6872 176.858 118.536 180.76 145.706 150.122C158.231 135.67 176.922 95.7822 151.487 51.8483C145.224 51.6074 132.699 47.0791 132.699 30.8929" stroke="#F5F5F5"/>
<path d="M87.252 42.4358C81.4712 27.9839 84.8433 10.8824 87.252 4.13812C99.3916 4.13812 113.506 9.91891 119.046 12.8093C141.013 12.2312 152.768 23.6483 155.899 29.429C166.304 42.1468 157.826 49.6618 152.286 51.8296L155.899 59.0556L145.06 61.2234C108.063 70.4726 91.1058 52.5522 87.252 42.4358Z" fill="#F6B756"/>
<path d="M152.286 51.8296L155.899 59.0556L145.06 61.2234C108.063 70.4726 91.1058 52.5522 87.252 42.4358C81.4712 27.9839 84.8433 10.8824 87.252 4.13812C99.3916 4.13812 113.506 9.91891 119.046 12.8093C141.013 12.2312 152.768 23.6483 155.899 29.429C166.304 42.1468 157.826 49.6618 152.286 51.8296ZM152.286 51.8296C134.943 48.9392 132.535 37.1368 133.498 31.5968" stroke="#F5F5F5" stroke-width="3"/>
<rect x="17.0836" y="70.6358" width="26.0135" height="26.0135" rx="13.0068" fill="#F6B756"/>
<circle cx="45.265" cy="62.6873" r="7.94858" fill="black"/>
<path d="M74.9427 69.9054C74.5392 69.5282 73.9064 69.5496 73.5293 69.9531C73.1521 70.3565 73.1735 70.9893 73.5769 71.3665L74.9427 69.9054ZM84.1884 78.5477L74.9427 69.9054L73.5769 71.3665L82.8226 80.0088L84.1884 78.5477Z" fill="black"/>
<path d="M91.0401 70.095L83.1236 78.8539" stroke="black" stroke-width="2" stroke-linecap="round"/>
<path d="M82.4288 87.9284C82.4454 88.4805 82.9064 88.9145 83.4584 88.8979C84.0105 88.8812 84.4445 88.4202 84.4278 87.8682L82.4288 87.9284ZM84.4278 87.8682L84.1232 77.7564L82.1241 77.8167L82.4288 87.9284L84.4278 87.8682Z" fill="black"/>
<circle cx="114.003" cy="61.242" r="7.94858" fill="black"/>
<path d="M163.862 111.101C145.941 121.507 49.4506 115.437 3.44516 111.101C16.1629 167.175 64.6251 177.34 87.2665 175.413C137.559 178.303 159.285 133.743 163.862 111.101Z" fill="#FF881A" stroke="#F5F5F5" stroke-width="3"/>
<rect x="118.348" y="69.2472" width="26.0135" height="26.0135" rx="13.0068" fill="#FF881A"/>
<path d="M205.812 84.5H235.406V89.9375H212.062V102.75H230.094V108H212.062V128H205.812V84.5ZM259.719 123.125C266.552 123.125 269.969 118.927 269.969 110.531V84.5H276.219V110.531C276.219 116.677 274.667 121.281 271.562 124.344C268.75 127.115 264.802 128.5 259.719 128.5C251.865 128.5 246.771 125.26 244.438 118.781C243.604 116.51 243.188 113.76 243.188 110.531V84.5H249.438V110.531C249.438 118.927 252.865 123.125 259.719 123.125ZM286.375 84.5H298.719C306.948 84.5 312.25 86.9375 314.625 91.8125C315.479 93.6042 315.906 95.625 315.906 97.875C315.906 100.104 315.604 101.99 315 103.531C314.417 105.073 313.594 106.396 312.531 107.5C310.49 109.625 307.677 111.021 304.094 111.688C305.573 116.25 308.083 119.396 311.625 121.125C312.792 121.708 313.771 122.021 314.562 122.062C315.896 122.104 316.833 122.062 317.375 121.938V128H315.969C311.281 128 307.292 126.333 304 123C301.104 120.104 299.156 116.458 298.156 112.062H292.625V128H286.375V84.5ZM298.312 107.062C302.083 107.062 304.875 106.333 306.688 104.875C308.5 103.417 309.406 101.146 309.406 98.0625C309.406 93.9583 307.5 91.3125 303.688 90.125C302.354 89.7083 300.74 89.5 298.844 89.5H292.625V107.062H298.312ZM323.75 84.5H336.094C344.323 84.5 349.625 86.9375 352 91.8125C352.854 93.6042 353.281 95.625 353.281 97.875C353.281 100.104 352.979 101.99 352.375 103.531C351.792 105.073 350.969 106.396 349.906 107.5C347.865 109.625 345.052 111.021 341.469 111.688C342.948 116.25 345.458 119.396 349 121.125C350.167 121.708 351.146 122.021 351.938 122.062C353.271 122.104 354.208 122.062 354.75 121.938V128H353.344C348.656 128 344.667 126.333 341.375 123C338.479 120.104 336.531 116.458 335.531 112.062H330V128H323.75V84.5ZM335.688 107.062C339.458 107.062 342.25 106.333 344.062 104.875C345.875 103.417 346.781 101.146 346.781 98.0625C346.781 93.9583 344.875 91.3125 341.062 90.125C339.729 89.7083 338.115 89.5 336.219 89.5H330V107.062H335.688ZM371.344 109.062L355.812 84.5H362.562L374.688 103.938L386.562 84.5H393.312L377.844 109V128H371.344V109.062ZM419.938 84.5H432.281C440.51 84.5 445.812 86.9375 448.188 91.8125C449.042 93.6042 449.469 95.7292 449.469 98.1875C449.469 100.646 449.031 102.75 448.156 104.5C447.281 106.25 446.104 107.688 444.625 108.812C441.75 110.979 437.906 112.062 433.094 112.062H426.188V128H419.938V84.5ZM431.875 107.062C435.646 107.062 438.438 106.333 440.25 104.875C442.062 103.417 442.969 101.146 442.969 98.0625C442.969 93.9583 441.062 91.3125 437.25 90.125C435.917 89.7083 434.302 89.5 432.406 89.5H426.188V107.062H431.875ZM456.812 84.5H463.062V122.5H481.688V128H456.812V84.5ZM503.25 84.5H507.531L525.875 128H519.375L514.969 117.062H495.656L491.281 128H484.906L503.25 84.5ZM512.969 112.062L505.344 93L497.688 112.062H512.969ZM531.531 84.5H536.031L558.75 116.594L558.406 112.094V84.5H564.594V128H560.125L541.156 101.344L537.375 95.9062L537.719 101.344V128H531.531V84.5ZM574.25 84.5H602.344V89.9375H580.5V102.75H597.031V108H580.5V122.5H602.344V128H574.25V84.5ZM622.281 90H609.188V84.5H641.625V90H628.531V128H622.281V90Z" fill="#F2F2F2"/>
</svg>
